<?xml version="1.0" encoding="utf-8"?>
<svg version="1.1" id="Layer_1" xmlns="http://www.w3.org/2000/svg" xmlns:xlink="http://www.w3.org/1999/xlink" x="0px" y="0px"
	 viewBox="0 0 100 125" style="enable-background:new 0 0 100 125;" xml:space="preserve">
<path d="M75.9,78.3L47.6,50l28.3-28.3c4.1-4.3,4.1-11.2,0-15.5C71.6,1.7,64.5,1.5,60,5.8L24.1,41.6c-2.2,2.2-3.4,5.2-3.3,8.3
	c0,0.2,0,0.3,0,0.4c0,3,1.2,5.9,3.3,8L60,94.2c2.1,2.1,5,3.3,8,3.3c6.2,0,11.2-5.1,11.2-11.3C79.2,83.3,78,80.4,75.9,78.3z"/>
</svg>
