<?xml version="1.0" encoding="utf-8"?>
<svg version="1.1" id="Layer_1" xmlns="http://www.w3.org/2000/svg" xmlns:xlink="http://www.w3.org/1999/xlink" x="0px" y="0px"
	 viewBox="0 0 100 125" style="enable-background:new 0 0 100 125;" xml:space="preserve">
<path d="M20.8,86.2c0,6.2,5,11.3,11.2,11.3c3,0,5.9-1.2,8-3.3l35.9-35.9c2.1-2.1,3.3-5,3.3-8c0-0.1,0-0.2,0-0.4
	c0.1-3.1-1.1-6.1-3.3-8.3L40,5.8c-4.5-4.3-11.6-4.1-15.9,0.4c-4.1,4.3-4.1,11.2,0,15.5L52.4,50L24.1,78.3
	C22,80.4,20.8,83.3,20.8,86.2z"/>
</svg>